<svg width="20" height="20" viewBox="0 0 20 20" fill="none" xmlns="http://www.w3.org/2000/svg">
<path d="M10.0251 7.29637e-05C7.64672 -0.00913191 5.34324 0.85288 3.52906 2.43102C1.71487 4.00916 0.509086 6.19982 0.128632 8.60888C-0.251821 11.0179 0.218035 13.4872 1.45367 15.5725C2.6893 17.6578 4.60959 19.2221 6.86905 19.9841C7.36842 20.0661 7.52822 19.7484 7.52822 19.4717V17.7398C4.76172 18.3547 4.17246 16.3972 4.17246 16.3972C3.98595 15.7608 3.58161 15.2148 3.0339 14.86C2.12505 14.2246 3.10382 14.2451 3.10382 14.2451C3.41732 14.2867 3.7176 14.4005 3.98221 14.578C4.24682 14.7555 4.46891 14.992 4.63188 15.2699C4.90931 15.7761 5.37027 16.1494 5.91452 16.3087C6.45877 16.468 7.0423 16.4004 7.53821 16.1205C7.58371 15.601 7.80655 15.1147 8.16741 14.7473C6.03012 14.5218 3.65312 13.6405 3.65312 9.7359C3.62423 8.71257 3.9821 7.71741 4.65186 6.95862C4.34778 6.07669 4.38351 5.10889 4.75173 4.25309C4.75173 4.25309 5.59067 3.97639 7.49826 5.27791C9.13379 4.82676 10.8564 4.82676 12.4919 5.27791C14.3995 3.95589 15.2385 4.25309 15.2385 4.25309C15.6067 5.10889 15.6424 6.07669 15.3383 6.95862C16.0081 7.71741 16.366 8.71257 16.3371 9.7359C16.3371 13.6507 14 14.5116 11.7729 14.7678C12.0127 15.0152 12.1983 15.3123 12.3171 15.6393C12.436 15.9663 12.4854 16.3155 12.462 16.6637V19.4717C12.462 19.7484 12.6218 20.0764 13.1311 19.9841C15.3865 19.2235 17.304 17.6633 18.5399 15.5834C19.7758 13.5035 20.2492 11.0399 19.8753 8.63424C19.5014 6.2286 18.3046 4.03829 16.4995 2.45605C14.6944 0.873811 12.3991 0.00311201 10.0251 7.29637e-05Z" fill="#2E2E2E"/>
</svg>
