<svg width="15" height="15" viewBox="0 0 15 15" fill="none" xmlns="http://www.w3.org/2000/svg">
<path d="M15 15H11.6667V9.375C11.6667 8.49167 10.675 7.75833 9.79167 7.75833C8.90833 7.75833 8.33333 8.49167 8.33333 9.375V15H5V5H8.33333V6.66667C8.88333 5.775 10.3 5.2 11.25 5.2C13.3333 5.2 15 6.9 15 8.95833V15ZM3.33333 15H0V5H3.33333V15ZM1.66667 0C2.58333 0 3.33333 0.75 3.33333 1.66667C3.33333 2.58333 2.58333 3.33333 1.66667 3.33333C0.75 3.33333 0 2.58333 0 1.66667C0 0.75 0.75 0 1.66667 0Z" fill="#2E2E2E"/>
</svg>
